<svg xmlns="http://www.w3.org/2000/svg" height="512pt" version="1.1" viewBox="0 0 512.00015 512" width="512pt">
<g id="surface1">
<path d="M 177.417969 51.308594 C 175.621094 45.90625 170.816406 41.707031 165.117188 41.105469 L 133.613281 36.304688 L 119.511719 7.800781 C 116.8125 2.703125 111.410156 0 106.011719 0 C 100.613281 0 95.210938 2.703125 92.511719 7.800781 L 78.410156 36.304688 L 46.90625 41.105469 C 41.207031 41.707031 36.402344 45.90625 34.605469 51.308594 C 32.804688 56.707031 34.304688 62.707031 38.503906 66.609375 L 61.308594 88.8125 L 55.90625 120.3125 C 55.003906 126.015625 57.40625 131.714844 61.90625 135.015625 C 66.707031 138.617188 72.707031 138.917969 77.808594 136.21875 L 106.011719 121.214844 L 134.214844 136.21875 C 145.316406 141.917969 158.214844 132.617188 156.113281 120.3125 L 150.714844 88.8125 L 173.515625 66.609375 C 177.71875 62.707031 179.21875 56.707031 177.417969 51.308594 Z M 177.417969 51.308594 " style=" stroke:none;fill-rule:nonzero;fill:rgb(100%,83.137255%,0%);fill-opacity:1;" />
<path d="M 387.441406 51.308594 C 385.640625 45.90625 380.839844 41.707031 375.140625 41.105469 L 343.636719 36.304688 L 329.535156 7.800781 C 326.835938 2.703125 321.433594 0 316.035156 0 C 310.636719 0 305.234375 2.703125 302.53125 7.800781 L 288.433594 36.304688 L 256.929688 41.105469 C 251.226562 41.707031 246.425781 45.90625 244.625 51.308594 C 242.828125 56.707031 244.328125 62.707031 248.527344 66.609375 L 271.328125 88.8125 L 265.929688 120.3125 C 265.027344 126.015625 267.429688 131.714844 271.929688 135.015625 C 276.429688 138.617188 282.730469 138.917969 287.832031 136.21875 L 316.035156 121.214844 L 344.238281 136.21875 C 346.636719 137.417969 349.035156 138.015625 351.4375 138.015625 C 354.4375 138.015625 357.4375 137.117188 360.136719 135.015625 C 364.640625 131.714844 367.039062 126.015625 366.136719 120.3125 L 360.738281 88.8125 L 383.539062 66.609375 C 387.742188 62.707031 389.242188 56.707031 387.441406 51.308594 Z M 387.441406 51.308594 " style=" stroke:none;fill-rule:nonzero;fill:rgb(100%,83.137255%,0%);fill-opacity:1;" />
<path d="M 499.035156 192.125 L 467.648438 187.320312 L 453.550781 158.820312 C 450.847656 153.71875 445.449219 151.019531 440.046875 151.019531 C 434.648438 151.019531 429.246094 153.71875 426.546875 158.820312 L 412.445312 187.320312 L 380.941406 192.125 C 375.242188 192.722656 370.441406 196.921875 368.640625 202.324219 C 366.839844 207.722656 368.339844 213.722656 372.539062 217.625 L 395.34375 239.828125 L 389.941406 271.332031 C 387.84375 283.632812 400.742188 292.933594 411.84375 287.234375 L 440.046875 272.230469 L 468.25 287.234375 C 479.351562 292.933594 492.253906 283.632812 490.152344 271.332031 L 484.75 239.828125 L 507.433594 217.625 C 516.4375 208.925781 511.335938 193.921875 499.035156 192.125 Z M 499.035156 192.125 " style=" stroke:none;fill-rule:nonzero;fill:rgb(100%,83.137255%,0%);fill-opacity:1;" />
<path d="M 326.4375 376.441406 C 345.039062 376.441406 360.039062 391.445312 360.039062 410.046875 C 360.039062 428.949219 345.039062 443.949219 326.4375 443.949219 L 296.433594 443.949219 C 315.035156 443.949219 330.035156 458.953125 330.035156 477.855469 C 330.035156 496.457031 315.035156 511.457031 296.433594 511.457031 L 202.222656 511.457031 C 157.21875 511.457031 112.210938 500.957031 72.007812 481.453125 L 31.203125 377.640625 L 31.804688 376.441406 L 72.007812 271.132812 L 106.8125 253.730469 C 164.71875 224.625 177.917969 181.722656 180.621094 158.019531 C 180.320312 152.019531 183.019531 146.019531 187.519531 142.117188 C 192.023438 137.917969 198.320312 136.117188 204.324219 137.015625 C 233.125 141.515625 255.027344 166.421875 255.027344 196.421875 C 255.027344 212.925781 249.328125 228.527344 238.828125 241.429688 L 326.4375 241.429688 C 345.039062 241.429688 360.039062 256.429688 360.039062 275.03125 C 360.039062 293.933594 345.039062 308.9375 326.4375 308.9375 C 345.039062 308.9375 360.039062 323.9375 360.039062 342.839844 C 360.039062 361.441406 345.039062 376.441406 326.4375 376.441406 Z M 326.4375 376.441406 " style=" stroke:none;fill-rule:nonzero;fill:rgb(100%,74.901961%,67.058824%);fill-opacity:1;" />
<path d="M 177.417969 51.308594 C 179.21875 56.707031 177.71875 62.707031 173.519531 66.609375 L 150.714844 88.8125 L 156.117188 120.3125 C 158.21875 132.617188 145.316406 141.917969 134.214844 136.21875 L 106.011719 121.214844 L 106.011719 0 C 111.414062 0 116.8125 2.703125 119.515625 7.800781 L 133.613281 36.304688 L 165.117188 41.105469 C 170.816406 41.707031 175.621094 45.90625 177.417969 51.308594 Z M 177.417969 51.308594 " style=" stroke:none;fill-rule:nonzero;fill:rgb(99.215686%,74.901961%,0%);fill-opacity:1;" />
<path d="M 387.441406 51.308594 C 389.242188 56.707031 387.742188 62.707031 383.542969 66.609375 L 360.738281 88.8125 L 366.140625 120.3125 C 367.042969 126.015625 364.640625 131.714844 360.140625 135.015625 C 357.441406 137.117188 354.441406 138.015625 351.4375 138.015625 C 349.039062 138.015625 346.640625 137.417969 344.238281 136.21875 L 316.035156 121.214844 L 316.035156 0 C 321.4375 0 326.835938 2.703125 329.535156 7.800781 L 343.636719 36.304688 L 375.140625 41.105469 C 380.839844 41.707031 385.640625 45.90625 387.441406 51.308594 Z M 387.441406 51.308594 " style=" stroke:none;fill-rule:nonzero;fill:rgb(99.215686%,74.901961%,0%);fill-opacity:1;" />
<path d="M 507.433594 217.625 L 484.753906 239.828125 L 490.152344 271.332031 C 492.253906 283.632812 479.351562 292.933594 468.253906 287.234375 L 440.050781 272.230469 L 440.050781 151.015625 C 445.449219 151.015625 450.851562 153.71875 453.550781 158.816406 L 467.652344 187.320312 L 499.035156 192.121094 C 511.335938 193.921875 516.4375 208.925781 507.433594 217.625 Z M 507.433594 217.625 " style=" stroke:none;fill-rule:nonzero;fill:rgb(99.215686%,74.901961%,0%);fill-opacity:1;" />
<path d="M 326.4375 443.949219 L 296.433594 443.949219 C 315.035156 443.949219 330.035156 458.953125 330.035156 477.855469 C 330.035156 496.457031 315.035156 511.457031 296.433594 511.457031 L 202.222656 511.457031 C 157.21875 511.457031 112.210938 500.957031 72.007812 481.453125 L 31.203125 377.640625 L 31.804688 376.441406 L 326.4375 376.441406 C 345.039062 376.441406 360.039062 391.445312 360.039062 410.046875 C 360.039062 428.949219 345.039062 443.949219 326.4375 443.949219 Z M 326.4375 443.949219 " style=" stroke:none;fill-rule:nonzero;fill:rgb(100%,65.490196%,56.078431%);fill-opacity:1;" />
<path d="M 72.007812 271.128906 L 72.007812 481.453125 L 15 481.453125 C 6.601562 481.453125 0 474.851562 0 466.453125 L 0 286.433594 C 0 278.03125 6.601562 271.429688 15 271.429688 L 71.40625 271.429688 Z M 72.007812 271.128906 " style=" stroke:none;fill-rule:nonzero;fill:rgb(44.705882%,36.470588%,34.117647%);fill-opacity:1;" />
<path d="M 72.007812 376.441406 L 72.007812 481.453125 L 15 481.453125 C 6.601562 481.453125 0 474.851562 0 466.453125 L 0 376.441406 Z M 72.007812 376.441406 " style=" stroke:none;fill-rule:nonzero;fill:rgb(40.784314%,32.941176%,30.980392%);fill-opacity:1;" />
</g>
</svg>